<svg width="10" height="7" viewBox="0 0 10 7" fill="none" xmlns="http://www.w3.org/2000/svg">
<path d="M5.05208 1.05629C6.63125 1.05629 8.03958 1.94379 8.72708 3.34796C8.03958 4.75213 6.63542 5.63963 5.05208 5.63963C3.46875 5.63963 2.06458 4.75213 1.37708 3.34796C2.06458 1.94379 3.47292 1.05629 5.05208 1.05629ZM5.05208 0.222961C2.96875 0.222961 1.18958 1.51879 0.46875 3.34796C1.18958 5.17713 2.96875 6.47296 5.05208 6.47296C7.13542 6.47296 8.91458 5.17713 9.63542 3.34796C8.91458 1.51879 7.13542 0.222961 5.05208 0.222961ZM5.05208 2.30629C5.62708 2.30629 6.09375 2.77296 6.09375 3.34796C6.09375 3.92296 5.62708 4.38963 5.05208 4.38963C4.47708 4.38963 4.01042 3.92296 4.01042 3.34796C4.01042 2.77296 4.47708 2.30629 5.05208 2.30629ZM5.05208 1.47296C4.01875 1.47296 3.17708 2.31463 3.17708 3.34796C3.17708 4.38129 4.01875 5.22296 5.05208 5.22296C6.08542 5.22296 6.92708 4.38129 6.92708 3.34796C6.92708 2.31463 6.08542 1.47296 5.05208 1.47296Z" fill="white"/>
</svg>
