<svg width="16" height="16" viewBox="0 0 16 16" fill="none" xmlns="http://www.w3.org/2000/svg">
<path opacity="0.5" d="M14 0H2C0.895431 0 0 0.895431 0 2V14C0 15.1046 0.895431 16 2 16H14C15.1046 16 16 15.1046 16 14V2C16 0.895431 15.1046 0 14 0Z" fill="white"/>
<path d="M4.03069 9.33335C4.78404 9.33335 5.39476 8.7364 5.39476 8.00002C5.39476 7.26364 4.78404 6.66669 4.03069 6.66669C3.27733 6.66669 2.66663 7.26364 2.66663 8.00002C2.66663 8.7364 3.27733 9.33335 4.03069 9.33335Z" fill="#272727"/>
<path d="M8.07879 9.33335C8.83215 9.33335 9.44287 8.7364 9.44287 8.00002C9.44287 7.26364 8.83215 6.66669 8.07879 6.66669C7.32544 6.66669 6.71472 7.26364 6.71472 8.00002C6.71472 8.7364 7.32544 9.33335 8.07879 9.33335Z" fill="#272727"/>
<path d="M12.1271 9.33335C12.8805 9.33335 13.4912 8.7364 13.4912 8.00002C13.4912 7.26364 12.8805 6.66669 12.1271 6.66669C11.3738 6.66669 10.7631 7.26364 10.7631 8.00002C10.7631 8.7364 11.3738 9.33335 12.1271 9.33335Z" fill="#272727"/>
</svg>
