<svg width="14" height="14" viewBox="0 0 14 14" fill="none" xmlns="http://www.w3.org/2000/svg">
<path d="M5.26429 0.25C6.59416 0.25 7.86956 0.778289 8.80992 1.71865C9.75028 2.65901 10.2786 3.93441 10.2786 5.26429C10.2786 6.50629 9.82343 7.648 9.07514 8.52743L9.28343 8.73571H9.89286L13.75 12.5929L12.5929 13.75L8.73571 9.89286V9.28343L8.52743 9.07514C7.61757 9.8518 6.46055 10.2785 5.26429 10.2786C3.93441 10.2786 2.65901 9.75028 1.71865 8.80992C0.778289 7.86956 0.25 6.59416 0.25 5.26429C0.25 3.93441 0.778289 2.65901 1.71865 1.71865C2.65901 0.778289 3.93441 0.25 5.26429 0.25ZM5.26429 1.79286C3.33571 1.79286 1.79286 3.33571 1.79286 5.26429C1.79286 7.19286 3.33571 8.73571 5.26429 8.73571C7.19286 8.73571 8.73571 7.19286 8.73571 5.26429C8.73571 3.33571 7.19286 1.79286 5.26429 1.79286Z" fill="#272727" fill-opacity="0.8"/>
</svg>
