<?xml version="1.0" standalone="no"?>
<!DOCTYPE svg PUBLIC "-//W3C//DTD SVG 20010904//EN"
 "http://www.w3.org/TR/2001/REC-SVG-20010904/DTD/svg10.dtd">
<svg version="1.0" xmlns="http://www.w3.org/2000/svg"
 width="24.000000pt" height="24.000000pt" viewBox="0 0 24.000000 24.000000"
 preserveAspectRatio="xMidYMid meet">

<g transform="translate(0.000000,24.000000) scale(0.100000,-0.100000)"
fill="#000000" stroke="none">
<path d="M54 178 c-15 -19 -16 -20 -1 -9 16 12 17 9 17 -53 0 -37 4 -66 10
-66 6 0 10 29 10 66 0 62 1 65 18 53 14 -11 13 -10 -2 9 -11 12 -22 22 -26 22
-4 0 -15 -10 -26 -22z"/>
<path d="M160 114 c0 -62 -1 -65 -17 -53 -10 7 -8 2 5 -11 l22 -24 23 24 c12
13 14 18 5 11 -17 -12 -18 -9 -18 53 0 37 -4 66 -10 66 -6 0 -10 -29 -10 -66z"/>
</g>
</svg>
