<svg width="24" height="24" viewBox="0 0 24 24" fill="none" xmlns="http://www.w3.org/2000/svg">
<path d="M11.125 17.625H13.375V16.5H14.5C15.1187 16.5 15.625 15.9937 15.625 15.375V12C15.625 11.3813 15.1187 10.875 14.5 10.875H11.125V9.75H15.625V7.5H13.375V6.375H11.125V7.5H10C9.38125 7.5 8.875 8.00625 8.875 8.625V12C8.875 12.6187 9.38125 13.125 10 13.125H13.375V14.25H8.875V16.5H11.125V17.625ZM21.25 3H3.25C2.00125 3 1.01125 4.00125 1.01125 5.25L1 18.75C1 19.9988 2.00125 21 3.25 21H21.25C22.4988 21 23.5 19.9988 23.5 18.75V5.25C23.5 4.00125 22.4988 3 21.25 3ZM21.25 18.75H3.25V5.25H21.25V18.75Z" fill="#3C8BB2"/>
</svg>
