<svg width="24" height="24" viewBox="0 0 24 24" fill="none" xmlns="http://www.w3.org/2000/svg">
<path d="M6.04609 14C7.17612 14 8.0922 13.1046 8.0922 12C8.0922 10.8954 7.17612 10 6.04609 10C4.91606 10 4 10.8954 4 12C4 13.1046 4.91606 14 6.04609 14Z" fill="#272727"/>
<path d="M12.1184 14C13.2484 14 14.1645 13.1046 14.1645 12C14.1645 10.8954 13.2484 10 12.1184 10C10.9883 10 10.0723 10.8954 10.0723 12C10.0723 13.1046 10.9883 14 12.1184 14Z" fill="#272727"/>
<path d="M18.1908 14C19.3208 14 20.2369 13.1046 20.2369 12C20.2369 10.8954 19.3208 10 18.1908 10C17.0607 10 16.1447 10.8954 16.1447 12C16.1447 13.1046 17.0607 14 18.1908 14Z" fill="#272727"/>
</svg>
