<svg width="24" height="24" viewBox="0 0 24 24" fill="none" xmlns="http://www.w3.org/2000/svg">
<path d="M10 12C12.21 12 14 10.21 14 8C14 5.79 12.21 4 10 4C7.79 4 6 5.79 6 8C6 10.21 7.79 12 10 12ZM10 6C11.1 6 12 6.9 12 8C12 9.1 11.1 10 10 10C8.9 10 8 9.1 8 8C8 6.9 8.9 6 10 6Z" fill="#272727"/>
<path d="M10 13C7.33 13 2 14.34 2 17V20H18V17C18 14.34 12.67 13 10 13ZM16 18H4V17.01C4.2 16.29 7.3 15 10 15C12.7 15 15.8 16.29 16 17V18Z" fill="#272727"/>
<path d="M14.51 4.05005C15.43 5.11005 16 6.49005 16 8.00005C16 9.51005 15.43 10.89 14.51 11.95C16.47 11.7 18 10.04 18 8.00005C18 5.96005 16.47 4.30005 14.51 4.05005Z" fill="#272727"/>
<path d="M18.53 13.83C19.42 14.66 20 15.7 20 17V20H22V17C22 15.55 20.41 14.49 18.53 13.83Z" fill="#272727"/>
</svg>
