<svg width="24" height="24" viewBox="0 0 24 24" fill="none" xmlns="http://www.w3.org/2000/svg">
<path d="M9.27314 13.4211C11.2823 13.4211 12.9097 11.7253 12.9097 9.63158C12.9097 7.53789 11.2823 5.84211 9.27314 5.84211C7.26394 5.84211 5.63657 7.53789 5.63657 9.63158C5.63657 11.7253 7.26394 13.4211 9.27314 13.4211ZM9.27314 7.73684C10.2732 7.73684 11.0914 8.58947 11.0914 9.63158C11.0914 10.6737 10.2732 11.5263 9.27314 11.5263C8.27308 11.5263 7.45486 10.6737 7.45486 9.63158C7.45486 8.58947 8.27308 7.73684 9.27314 7.73684ZM9.27314 15.3158C6.84573 15.3158 2 16.5853 2 19.1053V21H16.5463V19.1053C16.5463 16.5853 11.7006 15.3158 9.27314 15.3158ZM3.81829 19.1053C4.0183 18.4232 6.82755 17.2105 9.27314 17.2105C11.7278 17.2105 14.5462 18.4326 14.728 19.1053H3.81829ZM14.8007 7.78421C15.5644 8.90211 15.5644 10.3516 14.8007 11.4695L16.3281 13.0705C18.1646 11.1568 18.1646 8.26737 16.3281 6.18316L14.8007 7.78421ZM19.3373 3L17.8554 4.54421C20.3738 7.40526 20.3738 11.7063 17.8554 14.7189L19.3373 16.2632C22.883 12.5779 22.8921 6.83684 19.3373 3Z" fill="#272727"/>
</svg>
