<svg width="24" height="24" viewBox="0 0 24 24" fill="none" xmlns="http://www.w3.org/2000/svg">
<path d="M17.6618 12C17.6945 12.27 17.7273 12.54 17.7273 12.8182C17.7273 14.52 17.0727 16.0664 16.0091 17.2282C15.7964 16.5655 15.1909 16.0909 14.4545 16.0909H13.6364V13.6364C13.6364 13.1864 13.2682 12.8182 12.8182 12.8182H7.90909V11.1818H9.54545C9.99545 11.1818 10.3636 10.8136 10.3636 10.3636V8.72727H12C12.9 8.72727 13.6364 7.99091 13.6364 7.09091V5.01273C12.8591 4.76727 12.0409 4.63636 11.1818 4.63636C6.66545 4.63636 3 8.30182 3 12.8182C3 17.3345 6.66545 21 11.1818 21C15.6982 21 19.3636 17.3345 19.3636 12.8182C19.3636 12.54 19.3473 12.27 19.3227 12H17.6618ZM10.3636 19.3064C7.13182 18.9055 4.63636 16.1564 4.63636 12.8182C4.63636 12.3109 4.70182 11.8282 4.80818 11.3536L8.72727 15.2727V16.0909C8.72727 16.9909 9.46364 17.7273 10.3636 17.7273V19.3064ZM20.1818 5.45455V5.04545C20.1818 3.91636 19.2655 3 18.1364 3C17.0073 3 16.0909 3.91636 16.0909 5.04545V5.45455C15.6409 5.45455 15.2727 5.82273 15.2727 6.27273V9.54545C15.2727 9.99545 15.6409 10.3636 16.0909 10.3636H20.1818C20.6318 10.3636 21 9.99545 21 9.54545V6.27273C21 5.82273 20.6318 5.45455 20.1818 5.45455ZM19.3636 5.45455H16.9091V5.04545C16.9091 4.36636 17.4573 3.81818 18.1364 3.81818C18.8155 3.81818 19.3636 4.36636 19.3636 5.04545V5.45455Z" fill="#3C8BB2"/>
</svg>
