<svg width="24" height="24" viewBox="0 0 24 24" fill="none" xmlns="http://www.w3.org/2000/svg">
<path d="M12 3C7.032 3 3 7.032 3 12C3 16.968 7.032 21 12 21C16.968 21 21 16.968 21 12C21 7.032 16.968 3 12 3ZM4.8 12C4.8 11.451 4.872 10.911 4.989 10.398L9.291 14.7V15.6C9.291 16.59 10.101 17.4 11.091 17.4V19.137C7.554 18.687 4.8 15.663 4.8 12ZM17.301 16.86C17.067 16.131 16.401 15.6 15.591 15.6H14.691V12.9C14.691 12.405 14.286 12 13.791 12H8.391V10.2H10.191C10.686 10.2 11.091 9.795 11.091 9.3V7.5H12.891C13.881 7.5 14.691 6.69 14.691 5.7V5.331C17.328 6.393 19.2 8.985 19.2 12C19.2 13.872 18.471 15.582 17.301 16.86Z" fill="#272727"/>
</svg>
